<svg xmlns="http://www.w3.org/2000/svg" width="860" height="420" viewBox="0 0 860 420" font-family="Helvetica,Arial,sans-serif">
<rect width="860" height="420" fill="white"/>
<text x="210" y="26" font-size="16" font-weight="bold" fill="#111">Per-class precision / recall / F1 — complete ground truth (corpus, dvwa)</text>
<line x1="210" y1="364.0" x2="836" y2="364.0" stroke="#e5e7eb" stroke-width="1"/>
<text x="202" y="368.0" font-size="11" text-anchor="end" fill="#555">0.00</text>
<line x1="210" y1="300.4" x2="836" y2="300.4" stroke="#e5e7eb" stroke-width="1"/>
<text x="202" y="304.4" font-size="11" text-anchor="end" fill="#555">0.20</text>
<line x1="210" y1="236.8" x2="836" y2="236.8" stroke="#e5e7eb" stroke-width="1"/>
<text x="202" y="240.8" font-size="11" text-anchor="end" fill="#555">0.40</text>
<line x1="210" y1="173.2" x2="836" y2="173.2" stroke="#e5e7eb" stroke-width="1"/>
<text x="202" y="177.2" font-size="11" text-anchor="end" fill="#555">0.60</text>
<line x1="210" y1="109.6" x2="836" y2="109.6" stroke="#e5e7eb" stroke-width="1"/>
<text x="202" y="113.6" font-size="11" text-anchor="end" fill="#555">0.80</text>
<line x1="210" y1="46.0" x2="836" y2="46.0" stroke="#e5e7eb" stroke-width="1"/>
<text x="202" y="50.0" font-size="11" text-anchor="end" fill="#555">1.00</text>
<rect x="223.4" y="46.0" width="17.9" height="318.0" fill="#2563eb"/>
<text x="232.3" y="42.0" font-size="10" text-anchor="middle" fill="#333">1.00</text>
<rect x="244.3" y="67.2" width="17.9" height="296.8" fill="#dc2626"/>
<text x="253.2" y="63.2" font-size="10" text-anchor="middle" fill="#333">0.93</text>
<rect x="265.1" y="57.0" width="17.9" height="307.0" fill="#059669"/>
<text x="274.1" y="53.0" font-size="10" text-anchor="middle" fill="#333">0.97</text>
<text x="254.7" y="384" font-size="11" text-anchor="middle" fill="#111">SQL injection</text>
<rect x="312.8" y="46.0" width="17.9" height="318.0" fill="#2563eb"/>
<text x="321.8" y="42.0" font-size="10" text-anchor="middle" fill="#333">1.00</text>
<rect x="333.7" y="96.2" width="17.9" height="267.8" fill="#dc2626"/>
<text x="342.6" y="92.2" font-size="10" text-anchor="middle" fill="#333">0.84</text>
<rect x="354.6" y="73.3" width="17.9" height="290.7" fill="#059669"/>
<text x="363.5" y="69.3" font-size="10" text-anchor="middle" fill="#333">0.91</text>
<text x="344.1" y="384" font-size="11" text-anchor="middle" fill="#111">XSS</text>
<rect x="402.3" y="46.0" width="17.9" height="318.0" fill="#2563eb"/>
<text x="411.2" y="42.0" font-size="10" text-anchor="middle" fill="#333">1.00</text>
<rect x="423.1" y="46.0" width="17.9" height="318.0" fill="#dc2626"/>
<text x="432.1" y="42.0" font-size="10" text-anchor="middle" fill="#333">1.00</text>
<rect x="444.0" y="46.0" width="17.9" height="318.0" fill="#059669"/>
<text x="452.9" y="42.0" font-size="10" text-anchor="middle" fill="#333">1.00</text>
<text x="433.6" y="384" font-size="11" text-anchor="middle" fill="#111">Command injection</text>
<rect x="491.7" y="46.0" width="17.9" height="318.0" fill="#2563eb"/>
<text x="500.6" y="42.0" font-size="10" text-anchor="middle" fill="#333">1.00</text>
<rect x="512.6" y="99.0" width="17.9" height="265.0" fill="#dc2626"/>
<text x="521.5" y="95.0" font-size="10" text-anchor="middle" fill="#333">0.83</text>
<rect x="533.4" y="74.9" width="17.9" height="289.1" fill="#059669"/>
<text x="542.4" y="70.9" font-size="10" text-anchor="middle" fill="#333">0.91</text>
<text x="523.0" y="384" font-size="11" text-anchor="middle" fill="#111">Path traversal</text>
<rect x="581.1" y="46.0" width="17.9" height="318.0" fill="#2563eb"/>
<text x="590.1" y="42.0" font-size="10" text-anchor="middle" fill="#333">1.00</text>
<rect x="602.0" y="46.0" width="17.9" height="318.0" fill="#dc2626"/>
<text x="610.9" y="42.0" font-size="10" text-anchor="middle" fill="#333">1.00</text>
<rect x="622.9" y="46.0" width="17.9" height="318.0" fill="#059669"/>
<text x="631.8" y="42.0" font-size="10" text-anchor="middle" fill="#333">1.00</text>
<text x="612.4" y="384" font-size="11" text-anchor="middle" fill="#111">Deserialization</text>
<rect x="670.6" y="46.0" width="17.9" height="318.0" fill="#2563eb"/>
<text x="679.5" y="42.0" font-size="10" text-anchor="middle" fill="#333">1.00</text>
<rect x="691.4" y="46.0" width="17.9" height="318.0" fill="#dc2626"/>
<text x="700.4" y="42.0" font-size="10" text-anchor="middle" fill="#333">1.00</text>
<rect x="712.3" y="46.0" width="17.9" height="318.0" fill="#059669"/>
<text x="721.2" y="42.0" font-size="10" text-anchor="middle" fill="#333">1.00</text>
<text x="701.9" y="384" font-size="11" text-anchor="middle" fill="#111">Hardcoded secrets</text>
<rect x="760.0" y="46.0" width="17.9" height="318.0" fill="#2563eb"/>
<text x="768.9" y="42.0" font-size="10" text-anchor="middle" fill="#333">1.00</text>
<rect x="780.9" y="46.0" width="17.9" height="318.0" fill="#dc2626"/>
<text x="789.8" y="42.0" font-size="10" text-anchor="middle" fill="#333">1.00</text>
<rect x="801.7" y="46.0" width="17.9" height="318.0" fill="#059669"/>
<text x="810.7" y="42.0" font-size="10" text-anchor="middle" fill="#333">1.00</text>
<text x="791.3" y="384" font-size="11" text-anchor="middle" fill="#111">SSRF</text>
<rect x="210" y="398" width="11" height="11" fill="#059669"/>
<text x="226" y="408" font-size="11" fill="#333">f1</text>
<rect x="268" y="398" width="11" height="11" fill="#2563eb"/>
<text x="284" y="408" font-size="11" fill="#333">precision</text>
<rect x="375" y="398" width="11" height="11" fill="#dc2626"/>
<text x="391" y="408" font-size="11" fill="#333">recall</text>
</svg>